<?xml version="1.0" standalone="no"?>
<!DOCTYPE svg PUBLIC "-//W3C//DTD SVG 20010904//EN"
 "http://www.w3.org/TR/2001/REC-SVG-20010904/DTD/svg10.dtd">
<svg version="1.0" xmlns="http://www.w3.org/2000/svg"
 width="1024.000000pt" height="1024.000000pt" viewBox="0 0 1024.000000 1024.000000"
 preserveAspectRatio="xMidYMid meet">

<g transform="translate(0.000000,1024.000000) scale(0.100000,-0.100000)"
fill="#000000" stroke="none">
<path d="M4991 9590 c-65 -14 -139 -39 -196 -68 -27 -13 -763 -452 -1635 -975
-1482 -889 -1590 -956 -1656 -1022 -114 -114 -190 -263 -214 -422 -7 -46 -10
-697 -8 -2023 3 -2201 -5 -1988 82 -2165 48 -97 111 -178 191 -245 78 -64 921
-564 1055 -625 268 -121 460 -158 711 -136 543 49 874 381 929 931 8 83 10
631 8 1966 l-3 1850 -25 37 c-13 20 -41 45 -61 56 -34 20 -53 21 -298 21 -198
0 -270 -3 -294 -14 -42 -17 -83 -66 -97 -114 -6 -25 -10 -642 -10 -1878 0
-2064 7 -1891 -76 -1983 -62 -69 -125 -94 -234 -94 -94 1 -185 25 -280 73 -30
16 -226 132 -435 258 l-380 229 0 1849 0 1849 490 300 c1803 1106 2556 1565
2565 1565 9 0 2970 -1808 3033 -1852 l27 -19 0 -1845 0 -1844 -37 -24 c-21
-13 -708 -423 -1526 -911 -941 -560 -1495 -885 -1507 -882 -9 2 -188 106 -396
229 -209 124 -389 230 -401 237 -29 15 -102 14 -133 -3 -14 -7 -80 -45 -148
-83 -68 -39 -178 -92 -245 -119 -144 -56 -174 -75 -194 -121 -19 -46 -5 -87
45 -135 49 -48 1148 -721 1221 -749 101 -38 188 -51 296 -46 141 7 228 38 405
142 663 391 3081 1848 3120 1880 79 65 147 152 196 250 87 177 79 -36 82 2165
2 1335 -1 1977 -8 2024 -14 90 -66 226 -115 301 -21 33 -71 92 -110 130 -66
65 -192 143 -1651 1016 -868 521 -1601 958 -1629 972 -95 47 -183 69 -300 73
-60 1 -130 -1 -154 -6z"/>
<path d="M5865 6924 c-224 -15 -453 -64 -624 -133 -362 -145 -580 -393 -657
-747 -23 -109 -24 -339 0 -459 85 -432 406 -673 1051 -785 66 -11 248 -36 405
-55 446 -54 660 -99 807 -170 105 -52 143 -107 143 -211 0 -259 -160 -403
-520 -466 -99 -17 -533 -17 -655 0 -358 51 -534 179 -590 432 -28 129 -35 148
-62 181 -47 55 -69 59 -321 59 -220 0 -231 -1 -272 -23 -88 -46 -106 -126 -75
-332 82 -545 477 -900 1130 -1015 170 -30 299 -40 520 -40 401 0 671 52 943
181 140 66 230 127 334 227 211 203 319 448 335 762 17 344 -85 615 -297 787
-36 29 -112 77 -170 107 -232 120 -476 182 -1055 266 -616 90 -844 152 -892
243 -23 43 -23 169 1 231 38 98 153 170 341 212 98 22 508 31 658 14 323 -36
478 -139 544 -364 22 -75 48 -112 97 -135 39 -19 60 -21 269 -21 169 0 236 4
260 14 46 19 94 77 102 124 8 50 -9 181 -40 297 -120 456 -503 725 -1139 800
-131 15 -462 26 -571 19z"/>
</g>
</svg>
