<?xml version="1.0" standalone="no"?>
<!DOCTYPE svg PUBLIC "-//W3C//DTD SVG 20010904//EN"
 "http://www.w3.org/TR/2001/REC-SVG-20010904/DTD/svg10.dtd">
<svg version="1.0" xmlns="http://www.w3.org/2000/svg"
 width="512.000000pt" height="512.000000pt" viewBox="0 0 512.000000 512.000000"
 preserveAspectRatio="xMidYMid meet">

<g transform="translate(0.000000,512.000000) scale(0.100000,-0.100000)"
fill="#000000" stroke="none">
<path d="M1204 4951 c-47 -12 -133 -62 -160 -94 -14 -17 -37 -53 -52 -81 l-27
-51 -3 -762 -2 -763 80 0 80 0 2 749 c3 739 3 750 24 777 11 15 33 37 48 48
27 21 31 21 1432 24 1553 2 1446 7 1500 -64 l29 -37 3 -1709 2 -1708 -376 0
c-267 0 -389 -4 -418 -12 -55 -16 -138 -99 -154 -154 -8 -29 -12 -151 -12
-418 l0 -376 -988 2 -989 3 -37 29 c-68 51 -66 33 -66 671 l0 575 -80 0 -81 0
3 -602 3 -603 27 -51 c40 -76 70 -107 140 -145 l63 -34 1035 0 1035 0 50 24
c73 35 941 903 976 976 l24 50 0 1755 0 1755 -27 51 c-40 76 -70 107 -140 145
l-63 34 -1425 2 c-784 0 -1439 -2 -1456 -6z"/>
<path d="M895 3026 c-37 -16 -70 -52 -84 -89 -7 -19 -11 -201 -11 -538 0 -566
-1 -554 66 -605 l37 -29 1418 0 c1416 0 1418 0 1445 21 15 11 37 33 48 48 21
27 21 38 21 565 l0 538 -29 37 c-53 71 51 66 -1488 66 -1139 -1 -1398 -3
-1423 -14z m912 -311 c61 -18 119 -76 129 -130 3 -20 5 -37 3 -39 -2 -2 -30
-6 -62 -9 l-57 -6 -14 34 c-18 43 -42 55 -110 55 -43 0 -61 -5 -83 -24 -24
-21 -26 -27 -16 -49 12 -26 36 -37 184 -81 100 -30 134 -54 160 -110 25 -55
24 -112 -3 -166 -41 -81 -121 -115 -254 -108 -65 3 -90 10 -127 31 -53 31 -98
99 -101 150 -1 32 -1 32 57 37 l57 5 11 -32 c17 -54 61 -83 125 -83 85 0 124
27 124 84 0 36 -31 55 -142 87 -125 36 -173 66 -199 122 -32 72 -20 136 39
190 56 54 178 72 279 42z m675 -8 c20 -9 57 -34 82 -57 63 -58 89 -128 89
-240 1 -97 -12 -151 -49 -205 -14 -20 -24 -39 -22 -40 2 -1 23 -13 48 -25 25
-12 46 -24 48 -25 7 -6 -43 -85 -54 -85 -5 0 -37 16 -69 36 -56 33 -62 35
-102 25 -156 -40 -305 17 -371 143 -25 47 -27 60 -27 167 0 109 2 119 30 174
55 107 152 159 285 151 42 -2 92 -11 112 -19z m408 -252 l0 -254 158 -3 157
-3 3 -52 3 -53 -225 0 -226 0 0 310 0 310 65 0 65 0 0 -255z"/>
<path d="M2270 2597 c-58 -30 -84 -81 -88 -172 -5 -91 11 -150 52 -191 37 -37
102 -59 137 -45 23 8 23 9 -13 26 l-36 18 16 33 c9 19 20 34 26 34 6 0 35 -14
64 -30 l54 -29 20 47 c31 68 29 173 -3 238 -43 88 -140 118 -229 71z"/>
</g>
</svg>
