<?xml version="1.0" standalone="no"?>
<!DOCTYPE svg PUBLIC "-//W3C//DTD SVG 20010904//EN"
 "http://www.w3.org/TR/2001/REC-SVG-20010904/DTD/svg10.dtd">
<svg version="1.0" xmlns="http://www.w3.org/2000/svg"
 width="512.000000pt" height="512.000000pt" viewBox="0 0 512.000000 512.000000"
 preserveAspectRatio="xMidYMid meet">

<g transform="translate(0.000000,512.000000) scale(0.100000,-0.100000)"
fill="#000000" stroke="none">
<path d="M320 2560 l0 -2240 2240 0 2240 0 0 2240 0 2240 -2240 0 -2240 0 0
-2240z m3593 171 c43 -12 102 -33 130 -48 59 -31 192 -159 224 -215 l22 -37
-162 -104 c-160 -104 -162 -105 -177 -84 -35 51 -97 110 -134 129 -49 25 -138
34 -194 19 -54 -15 -107 -62 -123 -108 -18 -56 -7 -135 25 -178 40 -52 80 -76
289 -169 245 -110 324 -156 417 -243 79 -75 121 -139 156 -243 29 -85 27 -292
-4 -381 -62 -180 -206 -301 -427 -360 -66 -18 -108 -22 -245 -22 -145 0 -177
3 -261 25 -167 45 -313 133 -408 248 -55 66 -99 142 -85 148 5 1 81 45 169 97
l160 94 20 -27 c117 -155 228 -215 404 -214 134 1 217 39 252 116 35 77 20
162 -38 219 -48 49 -95 76 -250 143 -70 31 -164 74 -208 96 -270 135 -388 310
-389 573 0 294 183 496 497 546 79 12 253 2 340 -20z m-1195 -788 c-4 -866 -1
-821 -74 -972 -75 -152 -220 -253 -414 -287 -229 -40 -460 18 -609 152 -53 48
-161 191 -161 214 0 9 339 215 343 209 2 -2 16 -26 31 -52 65 -113 128 -156
231 -157 111 0 182 55 204 161 7 33 11 297 11 779 l0 730 220 0 221 0 -3 -777z"/>
</g>
</svg>
